<svg width="125" height="22" viewBox="0 0 125 22" fill="none" xmlns="http://www.w3.org/2000/svg">
<path d="M100.75 11.1674V1.25L116.723 21.25H108.736L100.75 11.1674Z" fill="white"/>
<path d="M122.074 14.5558H114.253L124.75 1.25V11.1674L122.074 14.5558Z" fill="white"/>
<rect x="69.75" y="0.75" width="1" height="21" fill="white"/>
<path d="M37.6557 19.0471L34.1071 18.4674V18.0036L37.5394 17.8877L37.4812 17.0181H33.1182L32.8855 19.221L36.4923 19.8587V20.2645L32.711 20.4384L32.5946 21.25H37.8884L37.6557 19.0471ZM3.68225 18.6993L3.62408 19.5109L4.9039 19.5688V20.3804L2.16974 20.3225L2.28608 17.9457L6.0092 17.8877L5.95103 17.0181H1.12261L0.715392 21.25H6.18373L6.06738 18.6413L3.68225 18.6993ZM26.8936 20.2645V19.5109L29.4532 19.4529V18.6413L26.8354 18.5833V17.8297L30.2677 17.7717V16.9022H25.6138L25.4974 21.25H30.384L30.3258 20.3804L26.8936 20.2645ZM23.1705 21.25L22.7051 16.9601H21.4834L19.68 18.9891L17.8767 16.9601H16.655L16.2478 21.25H17.7021L17.8185 18.4674L19.68 20.3804L21.5416 18.4674L21.658 21.25H23.1705ZM17.0041 1.25H14.0954L13.8627 14.5254H17.3531L17.0041 1.25ZM28.8715 1.25H19.7964L19.4473 14.5254H29.5114L28.8715 1.25ZM26.0792 11.6268L22.8796 11.7428L22.7051 3.91667L26.0792 4.03261V11.6268ZM39.75 4.14855L39.401 1.25H30.4422L30.5585 3.80072L33.4091 3.91667L33.6999 14.5254H37.2485L36.2014 4.03261L39.75 4.14855ZM8.39433 14.5254H12.2338L9.73233 8.55435L11.7102 7.4529L10.3722 1.25H0.599045L0.25 4.14855L2.46061 4.09058L1.41348 14.5833H4.84573L4.96208 11.221L7.40538 9.88768L8.39433 14.5254ZM5.1366 3.91667L7.92894 3.8587L8.27798 6.52536L5.02025 8.03261L5.1366 3.91667ZM12.6992 21.25H14.1535L12.9901 16.9601H9.49963L8.33616 21.25H9.7905L10.0232 20.1486L12.4083 20.2065L12.6992 21.25ZM10.2559 19.337L10.5468 17.9457L11.9429 17.8877L12.2338 19.279L10.2559 19.337Z" fill="white"/>
</svg>
