<svg width="22" height="30" viewBox="0 0 22 30" fill="none" xmlns="http://www.w3.org/2000/svg">
<path fill-rule="evenodd" clip-rule="evenodd" d="M11.5166 21.4214L14.8243 24.0583C15.0204 24.2148 15.1346 24.4515 15.1346 24.7018V29.25L11 25.9538L6.8654 29.25V24.7018C6.8654 24.4515 6.97959 24.2148 7.17572 24.0583L10.4835 21.4214C10.7854 21.1807 11.2146 21.1807 11.5166 21.4214ZM11.5532 11.6173L18.9955 18.292C19.1698 18.4483 19.2692 18.6709 19.2692 18.9045V23.4818L11.5532 16.5615C11.2387 16.2795 10.7613 16.2795 10.4468 16.5615L2.73079 23.4818V18.9045C2.73079 18.6709 2.83025 18.4483 3.00456 18.292L10.4468 11.6173C10.7613 11.3352 11.2387 11.3352 11.5532 11.6173ZM11.5847 0.991353L21.2656 10.6385C21.5758 10.9475 21.75 11.3667 21.75 11.8038V17.7134L18.4424 15.2414V13.1106C18.4424 12.892 18.3552 12.6824 18.2001 12.5279L11.5847 5.93557C11.2618 5.61376 10.7382 5.61376 10.4153 5.93557L3.7999 12.5279C3.64486 12.6824 3.55767 12.892 3.55767 13.1106V15.2414L0.250011 17.7134V11.8038C0.250011 11.3667 0.424241 10.9475 0.734399 10.6385L10.4153 0.991353C10.7382 0.669549 11.2618 0.669549 11.5847 0.991353Z" fill="#F8F8F8"/>
</svg>
