<svg width="28" height="30" viewBox="0 0 28 30" fill="none" xmlns="http://www.w3.org/2000/svg">
<path fill-rule="evenodd" clip-rule="evenodd" d="M14 0.25L14.123 0.540835C15.3819 3.59915 16.2479 8.21314 16.7208 14.3828L16.764 14.9657L14.7921 17.4192V18.4689C15.2775 18.4689 16.764 19.4863 16.764 21.0543C16.764 22.5542 15.7832 23.2996 15.4266 23.3615L15.382 23.3657V28.5617C15.382 28.9587 14.9807 29.1851 14.1781 29.2407L14 29.25C13.0787 29.2165 12.618 28.9871 12.618 28.5617V23.3657C12.3081 23.3657 11.2361 22.6224 11.2361 21.0543C11.2361 19.4863 12.7225 18.4689 13.2079 18.4689V17.4192L11.2361 14.9657C11.7129 8.3011 12.6342 3.3958 14 0.25ZM0.760696 4.73287L0.961239 4.9255C2.83866 6.76735 4.87677 9.84777 7.07557 14.1667L7.31177 14.6341L6.52446 17.0319L6.83937 17.7987C7.21434 17.6496 8.66822 17.9364 9.13868 19.0819C9.60923 20.2273 9.00397 21.0996 8.7645 21.1948C9.85754 23.8559 10.4678 25.3419 10.5955 25.6526C10.714 25.941 10.4749 26.2281 9.87821 26.5138L9.73423 26.5796C9.01228 26.8381 8.58748 26.812 8.45984 26.5012L6.62887 22.0435C6.3894 22.1387 5.33805 21.9248 4.8675 20.7794C4.39704 19.6339 5.24036 18.4342 5.61533 18.2852L5.30033 17.5184L3.04059 16.3316C1.40927 11.3166 0.649299 7.45035 0.760696 4.73287ZM27.2393 4.73287C27.3507 7.45035 26.5908 11.3166 24.9594 16.3316L22.6997 17.5184L22.3847 18.2852C22.7597 18.4342 23.603 19.6339 23.1325 20.7794C22.662 21.9248 21.6106 22.1387 21.3712 22.0435L19.5402 26.5012C19.4126 26.812 18.9878 26.8381 18.2658 26.5796L18.1218 26.5138C17.5251 26.2281 17.2861 25.941 17.4046 25.6526C17.5322 25.3419 18.1425 23.8559 19.2355 21.1948C18.9961 21.0996 18.3908 20.2273 18.8614 19.0819C19.3318 17.9364 20.7857 17.6496 21.1607 17.7987L21.4756 17.0319L20.6883 14.6341L20.9245 14.1667C23.1233 9.84777 25.1614 6.76735 27.0388 4.9255L27.2393 4.73287ZM14 19.7344C13.2367 19.7344 12.618 20.343 12.618 21.0938C12.618 21.8445 13.2367 22.4532 14 22.4532C14.7633 22.4532 15.382 21.8445 15.382 21.0938C15.382 20.343 14.7633 19.7344 14 19.7344ZM6.60705 18.9664C6.01733 19.2008 5.72186 19.8354 5.9472 20.3838C6.17245 20.9323 6.83309 21.1869 7.42281 20.9525C8.01261 20.7181 8.308 20.0835 8.08275 19.5351C7.8575 18.9866 7.19676 18.7321 6.60705 18.9664ZM21.393 18.9664C20.8033 18.7321 20.1425 18.9866 19.9173 19.5351C19.692 20.0835 19.9874 20.7181 20.5772 20.9525C21.1669 21.1869 21.8276 20.9323 22.0528 20.3838C22.2782 19.8354 21.9827 19.2008 21.393 18.9664Z" fill="#F8F8F8"/>
</svg>
