<svg width="24" height="30" viewBox="0 0 24 30" fill="none" xmlns="http://www.w3.org/2000/svg">
<path fill-rule="evenodd" clip-rule="evenodd" d="M12.5088 0.25C12.5088 1.49926 12.5233 2.45929 11.9202 3.60792L12 3.60702C18.4893 3.60702 23.75 8.9171 23.75 15.4675C23.75 19.3954 21.8583 22.8774 18.9444 25.0358C17.9915 25.9612 15.8078 27.5328 12.3928 29.75C12.6074 28.8156 12.4924 28.0079 12.0477 27.3269L12 27.328C5.51069 27.328 0.250015 22.0178 0.250015 15.4675C0.250015 10.8781 2.83234 6.89766 6.61033 4.92559C9.67481 2.78505 11.6407 1.22647 12.5088 0.25ZM12 8.72174C8.2918 8.72174 5.28574 11.7561 5.28574 15.4991C5.28574 16.2042 5.39238 16.884 5.59027 17.5232C7.60033 18.9673 11.5074 18.1091 11.8875 13.8048C12.7728 17.2627 12.1547 20.7235 7.89019 20.8588C9.02548 21.7475 10.4515 22.2766 12 22.2766C15.7082 22.2766 18.7143 19.2422 18.7143 15.4991C18.7143 11.7561 15.7082 8.72174 12 8.72174Z" fill="#1F2326"/>
</svg>
