<svg width="30" height="24" viewBox="0 0 30 24" fill="none" xmlns="http://www.w3.org/2000/svg">
<path fill-rule="evenodd" clip-rule="evenodd" d="M17.8846 6.375C17.3248 8.51788 15.9252 9.58929 13.6859 9.58929H0.250008C0.809832 7.98214 1.64958 7.17857 2.7692 7.17857H12.8461C11.7265 6.10717 10.6068 5.57143 9.48718 5.57143H5.28847C5.82282 4.54872 6.86732 4.01411 8.42188 3.96758L8.96874 3.95987C11.375 3.89301 13.6502 3.0581 12.8461 0.75H17.0448L28.9832 11.4125C29.3223 11.7154 29.3406 12.2239 29.0242 12.5483C29.011 12.5618 28.9974 12.5749 28.9832 12.5875L17.0448 23.25H12.8461C13.6859 20.8393 11.1667 20.0357 8.64742 20.0357C7.0443 20.0357 5.95125 19.5476 5.36826 18.5714L5.28847 18.4286H9.48718C10.541 18.4286 11.5947 17.9541 12.6486 17.005L12.8461 16.8214H2.7692C1.69826 16.8214 0.883385 16.0862 0.324612 14.6158L0.250008 14.4107H13.6859C15.8505 14.4107 17.2305 15.4119 17.8258 17.4143L17.8846 17.625L23.7628 12L17.8846 6.375Z" fill="#F8F8F8"/>
</svg>
