<svg width="59" height="59" viewBox="0 0 59 59" fill="none" xmlns="http://www.w3.org/2000/svg">
<g filter="url(#filter0_d_1_188)">
<path d="M4.75 25.75C4.75 11.9429 15.9429 0.75 29.75 0.75C43.5571 0.75 54.75 11.9429 54.75 25.75C54.75 39.5571 43.5571 50.75 29.75 50.75C15.9429 50.75 4.75 39.5571 4.75 25.75Z" fill="#F8F8F8"/>
<path d="M5.25 25.75C5.25 12.2191 16.2191 1.25 29.75 1.25C43.2809 1.25 54.25 12.2191 54.25 25.75C54.25 39.2809 43.2809 50.25 29.75 50.25C16.2191 50.25 5.25 39.2809 5.25 25.75Z" stroke="black"/>
</g>
<path d="M24.7484 40.7498C27.5098 40.7498 29.7484 38.5112 29.7484 35.7498V30.7498H24.7484C21.9869 30.7498 19.7484 32.9884 19.7484 35.7498C19.7484 38.5112 21.9869 40.7498 24.7484 40.7498Z" fill="#FF4656"/>
<path d="M19.7484 25.7502C19.7484 22.9887 21.9869 20.7502 24.7484 20.7502H29.7484V30.7502H24.7484C21.9869 30.7502 19.7484 28.5115 19.7484 25.7502Z" fill="#FF4656"/>
<path d="M19.7484 15.7496C19.7484 12.9881 21.9869 10.7496 24.7484 10.7496H29.7484V20.7496H24.7484C21.9869 20.7496 19.7484 18.5109 19.7484 15.7496Z" fill="#FF4656"/>
<path d="M29.75 10.7496H34.75C37.5115 10.7496 39.75 12.9881 39.75 15.7496C39.75 18.5109 37.5115 20.7496 34.75 20.7496H29.75V10.7496Z" fill="#FF4656"/>
<path d="M39.75 25.7502C39.75 28.5115 37.5115 30.7502 34.75 30.7502C31.9885 30.7502 29.75 28.5115 29.75 25.7502C29.75 22.9887 31.9885 20.7502 34.75 20.7502C37.5115 20.7502 39.75 22.9887 39.75 25.7502Z" fill="#FF4656"/>
<defs>
<filter id="filter0_d_1_188" x="0.75" y="0.75" width="58" height="58" filterUnits="userSpaceOnUse" color-interpolation-filters="sRGB">
<feFlood flood-opacity="0" result="BackgroundImageFix"/>
<feColorMatrix in="SourceAlpha" type="matrix" values="0 0 0 0 0 0 0 0 0 0 0 0 0 0 0 0 0 0 127 0" result="hardAlpha"/>
<feOffset dy="4"/>
<feGaussianBlur stdDeviation="2"/>
<feComposite in2="hardAlpha" operator="out"/>
<feColorMatrix type="matrix" values="0 0 0 0 0 0 0 0 0 0 0 0 0 0 0 0 0 0 0.25 0"/>
<feBlend mode="normal" in2="BackgroundImageFix" result="effect1_dropShadow_1_188"/>
<feBlend mode="normal" in="SourceGraphic" in2="effect1_dropShadow_1_188" result="shape"/>
</filter>
</defs>
</svg>
