<svg width="30" height="22" viewBox="0 0 30 22" fill="none" xmlns="http://www.w3.org/2000/svg">
<path fill-rule="evenodd" clip-rule="evenodd" d="M19.6321 0.249985C24.4405 1.01272 27.2112 6.87818 27.3771 8.88413C27.9325 8.25615 28.1113 7.21848 27.9135 5.77136C28.9327 6.63265 29.2281 7.19775 29.2479 9.24963L29.249 9.4838L29.25 21.75C27.5634 21.1296 25.4542 20.621 23.058 20.2657L23.0577 6.6753C23.0577 4.46648 21.2956 1.47282 19.6321 0.249985ZM0.750595 5.64261C3.68148 11.6297 5.72828 15.1116 6.89083 16.0883L6.89049 20.2706C4.51669 20.6243 2.4258 21.1286 0.75 21.7431L0.750595 5.64261ZM15.5197 0.444689C14.865 2.72051 14.5124 5.05738 14.4621 7.45532L14.4557 8.05612L14.456 19.7036C12.1938 19.7232 10.0329 19.867 8.04323 20.1135L8.04357 6.48275C8.04357 4.2587 7.16267 2.71956 6.09987 1.52717C7.3957 1.9416 8.3517 2.72739 8.96814 3.8846C9.89263 5.62043 9.33378 10.1675 11.0431 10.1675C12.7524 10.1675 12.754 7.35135 12.9483 5.21451C13.0778 3.78992 13.9349 2.20004 15.5197 0.444689ZM17.0987 3.91126C17.0725 7.27326 17.5581 8.9543 18.5553 8.9543C19.5525 8.9543 19.8357 7.42548 19.405 4.36766C20.7202 5.93097 21.3778 7.28392 21.3778 8.42643L21.378 20.0474C19.6207 19.8498 17.7387 19.7314 15.7781 19.7063V7.99532C15.7781 6.1888 16.2183 4.82742 17.0987 3.91126ZM3.09115 1.83307C4.93011 2.90351 5.98218 4.11181 6.2474 5.45814L6.27866 5.64261L4.29163 9.70956C4.50781 7.52954 4.10764 4.90405 3.09115 1.83307Z" fill="#1F2326"/>
</svg>
