<svg width="19" height="34" viewBox="0 0 19 34" fill="none" xmlns="http://www.w3.org/2000/svg">
<path fill-rule="evenodd" clip-rule="evenodd" d="M7.72891 0.749985C6.59159 4.97823 5.06888 12.9572 8.90611 14.5691C11.4644 15.6438 11.9667 12.7026 10.4133 5.7459C12.9622 9.40665 14.0579 12.9377 13.7005 16.3391C14.1743 16.6106 14.6219 16.9245 15.0374 17.2756C15.649 16.9069 15.9547 16.2005 15.9547 15.1574C16.6165 16.3712 16.7788 17.573 16.4415 18.7629C17.5765 20.2766 18.25 22.1611 18.25 24.2037C18.25 29.1998 14.2206 33.25 9.25 33.25C4.27944 33.25 0.25 29.1998 0.25 24.2037C0.25 22.7638 0.584705 21.4025 1.18022 20.194C0.594842 18.8306 0.750305 16.9553 1.64699 14.5691C1.64699 16.7176 2.05114 17.2346 2.52842 17.5385C2.66285 17.6241 2.82315 17.6736 3.00931 17.6869C3.28006 17.4235 3.56655 17.1789 3.86762 16.9528C3.39526 10.7209 4.68217 5.31968 7.72891 0.749985ZM9.25 19.9187C6.89551 19.9187 4.98684 21.8371 4.98684 24.2037C4.98684 26.0466 6.14415 27.6176 7.76813 28.2228C7.92463 26.7406 8.53815 25.7224 9.60905 25.1665C9.60905 26.3542 9.45444 27.5631 10.2628 28.3667C12.1293 27.9091 13.5132 26.2188 13.5132 24.2037C13.5132 21.8371 11.6045 19.9187 9.25 19.9187Z" fill="#F8F8F8"/>
</svg>
