<svg width="27" height="37" viewBox="0 0 27 37" fill="none" xmlns="http://www.w3.org/2000/svg">
<path fill-rule="evenodd" clip-rule="evenodd" d="M24.6626 0.75L19.7223 10.5056C21.3317 12.0289 22.335 14.1816 22.335 16.5678C22.335 17.0856 22.2877 17.5926 22.1973 18.0844L26.75 21.7485L21.3319 20.5351C20.1123 22.7848 17.8877 24.4144 15.2573 24.8268L13.9419 36.75L12.8575 24.8597C12.0739 24.759 11.3241 24.5507 10.6237 24.2501L7.58637 26.2888L8.91327 23.2627C6.95545 21.801 5.65992 19.507 5.55551 16.9076L0.25 14.8505L5.87309 14.2583C6.21208 13.0806 6.80387 12.0095 7.58615 11.1068L7.58637 9.01221L10.0978 9.13323C10.7962 8.77419 11.5516 8.50991 12.347 8.35744H12.2633L13.5522 1.51783L14.8222 8.25208C15.7988 8.35352 16.7256 8.62172 17.5734 9.02767L24.6626 0.75ZM13.9419 12.6659C11.7787 12.6659 10.0251 14.4128 10.0251 16.5678C10.0251 18.7227 11.7787 20.4696 13.9419 20.4696C16.1051 20.4696 17.8587 18.7227 17.8587 16.5678C17.8587 14.4128 16.1051 12.6659 13.9419 12.6659Z" fill="#1F2326"/>
</svg>
