<svg width="36" height="26" viewBox="0 0 36 26" fill="none" xmlns="http://www.w3.org/2000/svg">
<path fill-rule="evenodd" clip-rule="evenodd" d="M7.96951 0.265016C6.72665 7.51287 8.15179 17.9972 17.0417 25.75C12.7585 25.5482 9.34012 24.9509 6.78664 23.9583C8.34614 22.96 9.12584 22.461 9.12584 22.461C0.113083 16.5477 0.193008 9.13033 1.20997 7.21207C2.17798 9.28767 3.198 10.5451 4.27004 10.9845C3.94063 6.36603 5.17377 2.79292 7.96951 0.265016ZM28.0305 0.25C30.8263 2.7779 32.0593 6.35102 31.73 10.9694C32.8021 10.5302 33.822 9.27266 34.79 7.19714C35.807 9.11531 35.8869 16.5327 26.8742 22.446C26.8742 22.446 27.6539 22.9451 29.2134 23.9433C26.6599 24.9359 23.2415 25.5332 18.9583 25.735C27.8482 17.9822 29.2734 7.49786 28.0305 0.25ZM23.6997 12.7802C24.1447 15.2187 21.6533 17.903 18.001 20.0711L18 20.0717C14.3478 17.903 11.8565 15.2187 12.3014 12.7802C12.7462 10.3414 16.7709 9.5217 18.0011 12.7802L18 12.7792L18.0726 12.6001C19.3808 9.55325 23.2632 10.3875 23.6997 12.7802ZM18 4.96948C19.0586 4.96948 19.9167 5.81467 19.9167 6.85724C19.9167 7.89981 19.0586 8.74499 18 8.74499C16.9414 8.74499 16.0833 7.89981 16.0833 6.85724C16.0833 5.81467 16.9414 4.96948 18 4.96948Z" fill="#1F2326"/>
</svg>
