<svg width="36" height="18" viewBox="0 0 36 18" fill="none" xmlns="http://www.w3.org/2000/svg">
<path fill-rule="evenodd" clip-rule="evenodd" d="M27.7114 17.2031V0.79685H30.1345L31.2115 2.16401L33.0961 0.79685L35.25 0.25V2.98433L33.0961 4.62496L35.25 6.81252V10.0937H34.173L31.2115 8.45315L35.25 12.8281V16.3828L32.5576 17.75L31.2115 16.3828L30.1345 17.2031H27.7114ZM9.40379 17.4766V0.796931H16.6731V17.4766H14.7885L12.0962 16.1094V17.4766H9.40379ZM18.5578 17.4766V0.796931H21.2501L22.3271 4.62504L23.1348 0.796931H25.8271V17.4766H22.3271L21.2501 16.1094L20.4424 17.4766H18.5578ZM0.25 1.07031L4.28853 5.99221L0.25 4.62496V13.375C0.788468 13.8308 1.54233 14.961 0.25 15.8359V17.4765H3.48082L4.55776 16.1094L5.6347 17.4765H7.51935V1.07031H0.25Z" fill="#1F2326"/>
</svg>
