<svg width="26" height="25" viewBox="0 0 26 25" fill="none" xmlns="http://www.w3.org/2000/svg">
<path fill-rule="evenodd" clip-rule="evenodd" d="M23.2659 12.25C23.2659 17.8255 18.5578 22.3453 12.75 22.3453C6.94222 22.3453 2.23412 17.8255 2.23412 12.25C2.23412 6.67453 6.94222 2.15476 12.75 2.15476C18.5578 2.15476 23.2659 6.67453 23.2659 12.25ZM25.25 12.25C25.25 18.8774 19.6535 24.25 12.75 24.25C5.84646 24.25 0.25 18.8774 0.25 12.25C0.25 5.6226 5.84646 0.25 12.75 0.25C19.6535 0.25 25.25 5.6226 25.25 12.25ZM11.1626 6.3452L8.96882 4.41467C7.39917 5.09373 6.07618 6.2052 5.16465 7.591L6.20229 9.58333L4.45757 8.91333C4.04743 9.8848 3.82153 10.9469 3.82153 12.0596C3.82153 12.5835 3.8716 13.0961 3.96736 13.5934L6.99597 13.0119L9.77375 8.44047L9.17847 13.0119L5.37035 16.8267C5.78451 17.4006 6.27146 17.9225 6.81826 18.38L6.79757 18.3452L8.98007 16.6309L7.84576 19.1199C9.20375 19.9559 10.8187 20.4405 12.5517 20.4405C14.7026 20.4405 16.6718 19.6939 18.1934 18.4557L16.9166 16.8214L12.1547 16.25L16.5198 14.9167L16.7182 12.4405L14.5356 7.67853L18.1071 12.25V14.7261L20.2515 16.0129C20.909 14.8352 21.2818 13.4892 21.2818 12.0596C21.2818 10.1484 20.6155 8.38667 19.4936 6.97673L17.7103 9.20233L18.6254 6.03947C17.054 4.57807 14.9123 3.67867 12.5517 3.67867C12.4853 3.67867 12.4191 3.6794 12.3531 3.6808V5.3928L12.9483 6.3452L11.9563 10.1547L11.1626 6.3452Z" fill="#1F2326"/>
</svg>
