<svg width="27" height="24" viewBox="0 0 27 24" fill="none" xmlns="http://www.w3.org/2000/svg">
<path fill-rule="evenodd" clip-rule="evenodd" d="M2.63791 12.197L13.75 23.75L24.8621 12.197C27.4005 9.55786 27.3762 5.38411 24.807 2.77467C22.1491 0.075109 17.7881 0.075109 15.1302 2.77467L13.75 4.17657L12.3698 2.77467C9.71186 0.075109 5.35084 0.075109 2.69299 2.77467C0.12387 5.38411 0.0994717 9.55786 2.63791 12.197ZM19.2511 10.9687C17.719 10.893 16.42 10.301 15.3543 9.19261C14.2887 8.08425 13.7558 6.76211 13.7558 5.22627C13.7558 6.76211 13.2211 8.08425 12.1516 9.19261C11.0821 10.301 9.78122 10.893 8.24905 10.9687C9.25785 11.0141 10.1832 11.2997 11.0252 11.8255C11.8671 12.3514 12.5327 13.0474 13.0219 13.9137C13.5112 14.78 13.7558 15.72 13.7558 16.7338C13.7558 15.1904 14.2887 13.8626 15.3543 12.7505C16.42 11.6382 17.719 11.0444 19.2511 10.9687Z" fill="#1F2326"/>
</svg>
