<svg width="27" height="28" viewBox="0 0 27 28" fill="none" xmlns="http://www.w3.org/2000/svg">
<path fill-rule="evenodd" clip-rule="evenodd" d="M14.3634 1.82723C14.3634 2.42217 13.8803 2.90446 13.2843 2.90446C12.6884 2.90446 12.2053 2.42217 12.2053 1.82723C12.2053 1.23229 12.6884 0.75 13.2843 0.75C13.8803 0.75 14.3634 1.23229 14.3634 1.82723ZM17.3843 5.92065C17.3843 6.63459 16.8046 7.21331 16.0895 7.21331C15.3744 7.21331 14.7947 6.63459 14.7947 5.92065C14.7947 5.2067 15.3744 4.62798 16.0895 4.62798C16.8046 4.62798 17.3843 5.2067 17.3843 5.92065ZM10.9102 6.78245C11.387 6.78245 11.7734 6.39663 11.7734 5.92065C11.7734 5.44473 11.387 5.05885 10.9102 5.05885C10.4335 5.05885 10.047 5.44473 10.047 5.92065C10.047 6.39663 10.4335 6.78245 10.9102 6.78245ZM18.9662 9.51681C19.8338 10.6625 20.3484 12.0894 20.3484 13.6364C20.3484 17.4125 17.2821 20.4737 13.4997 20.4737C9.71719 20.4737 6.65092 17.4125 6.65092 13.6364C6.65092 12.0894 7.16561 10.6623 8.03334 9.51659L0.335999 3.33553C0.0482604 4.19734 0.465466 6.86887 1.84662 8.07533C2.49083 8.63811 3.08184 9.14459 3.6021 9.59045C4.19717 10.1005 4.69986 10.5313 5.08367 10.8761V12.3843L0.852417 9.15253C0.996275 10.2298 1.58544 12.6512 2.88026 13.7284C3.68763 14.4001 4.40026 14.9096 4.81153 15.2038C4.92791 15.287 5.02022 15.353 5.08367 15.4005V17.1241L2.27819 14.7541C2.13432 16.1905 3.27129 19.0435 4.78186 20.1403C5.73851 20.8349 7.35943 22.1963 9.02686 23.5969C10.6696 24.9768 12.3576 26.3947 13.5001 27.25C14.6424 26.3947 16.3303 24.9768 17.973 23.5969C19.6405 22.1964 21.2615 20.8347 22.2181 20.1402C23.7287 19.0434 24.8657 16.1904 24.7218 14.7541L21.9163 17.124V15.4004C22.204 15.1849 23.0385 14.5386 24.0744 13.6769C25.3391 12.6246 25.643 10.3389 25.7905 9.22947L25.8008 9.15246L21.9163 12.3841V10.8761C22.3001 10.5312 22.8027 10.1005 23.3978 9.59045L23.3988 9.58964C23.9187 9.14393 24.5096 8.63767 25.1534 8.07526C26.5345 6.86872 26.9517 4.19719 26.664 3.33543L18.9662 9.51681ZM13.4998 18.8475C16.3603 18.8475 18.6791 16.5325 18.6791 13.6768C18.6791 10.8211 16.3603 8.50613 13.4998 8.50613C10.6394 8.50613 8.32049 10.8211 8.32049 13.6768C8.32049 16.5325 10.6394 18.8475 13.4998 18.8475Z" fill="#1F2326"/>
</svg>
