<svg width="35" height="12" viewBox="0 0 35 12" fill="none" xmlns="http://www.w3.org/2000/svg">
<path d="M28.7365 0.25C31.7815 0.25 34.25 2.70451 34.25 5.73238C34.25 8.76025 31.7815 11.2148 28.7365 11.2148C26.0048 11.2148 23.7371 9.23939 23.2993 6.64688L22.304 6.64614V7.18138C22.304 7.4237 22.2073 7.65608 22.0349 7.82743L18.3592 11.4824C18.0003 11.8392 17.4185 11.8392 17.0597 11.4824L13.384 7.82743C13.2117 7.65608 13.1148 7.4237 13.1148 7.18138V6.64614L11.2006 6.64688C10.7629 9.23939 8.49513 11.2148 5.76348 11.2148C2.71845 11.2148 0.249969 8.76025 0.249969 5.73238C0.249969 2.70451 2.71845 0.25 5.76348 0.25C8.49546 0.25 10.7634 2.22586 11.2008 4.81879L13.1148 4.81862V1.23744C13.1148 0.732754 13.5262 0.323683 14.0337 0.323683C14.2424 0.323683 14.4449 0.394243 14.6078 0.523865L17.1354 2.53456C17.471 2.80152 17.9479 2.80152 18.2835 2.53456L20.8111 0.523865C21.2073 0.208683 21.7857 0.272507 22.1027 0.666629C22.233 0.828615 22.304 1.02995 22.304 1.23744V4.81862L23.2991 4.81879C23.7365 2.22586 26.0045 0.25 28.7365 0.25ZM5.76348 2.99119C4.24097 2.99119 3.00673 4.21849 3.00673 5.73238C3.00673 7.24627 4.24097 8.47357 5.76348 8.47357C6.96351 8.47357 7.9844 7.7112 8.3631 6.64696L5.76348 6.64614C5.25598 6.64614 4.84457 6.23698 4.84457 5.73238C4.84457 5.22778 5.25598 4.81862 5.76348 4.81862L8.36342 4.8187C7.98497 3.75405 6.96384 2.99119 5.76348 2.99119ZM28.7365 2.99119C27.5361 2.99119 26.515 3.75405 26.1365 4.8187L28.7365 4.81862C29.244 4.81862 29.6554 5.22778 29.6554 5.73238C29.6554 6.23698 29.244 6.64614 28.7365 6.64614L26.1368 6.64696C26.5155 7.7112 27.5364 8.47357 28.7365 8.47357C30.2589 8.47357 31.4932 7.24627 31.4932 5.73238C31.4932 4.21849 30.2589 2.99119 28.7365 2.99119Z" fill="#1F2326"/>
</svg>
