<svg width="30" height="28" viewBox="0 0 30 28" fill="none" xmlns="http://www.w3.org/2000/svg">
<path fill-rule="evenodd" clip-rule="evenodd" d="M6.5578 18.5833C8.68666 22.0076 11.0816 23.7197 13.7426 23.7197V27.75L12.9443 24.9287C10.5494 24.5257 7.75522 23.7197 5.36029 19.2863L6.5578 18.5833ZM23.4422 18.5833L24.6397 19.2863C22.2448 23.7197 19.4506 24.5257 17.0557 24.9287L16.2574 27.75V23.7197C18.9184 23.7197 21.3133 22.0076 23.4422 18.5833ZM15 2.75L18.3529 9.41667H16.6765L15 20.25L13.3235 9.41667H11.6471L15 2.75ZM11.6471 10.25L12.4853 14.4167H6.61765L9.37561 15.2165C5.81437 16.2756 2.93914 17.6756 0.75 19.4167C2.03053 17.6344 3.48709 16.0272 5.11972 14.595L1.58824 11.0833L2.31264 11.4434C4.07193 12.3179 5.44311 12.9995 6.42619 13.4882L6.44757 13.4988C8.03225 12.2682 9.76539 11.1853 11.6471 10.25ZM18.3529 10.25C22.8235 12.4722 26.4559 15.5277 29.25 19.4167C27.0609 17.6756 24.1856 16.2756 20.6244 15.2165L23.3824 14.4167H17.5147L18.3529 10.25ZM12.4853 0.25V5.25L9.97059 9.41667H7.45588L9.97059 5.25L12.4853 0.25ZM17.5147 0.25L20.0294 5.25L22.5441 9.41667H20.0294L17.5147 5.25V0.25Z" fill="#1F2326"/>
</svg>
