<svg width="31" height="28" viewBox="0 0 31 28" fill="none" xmlns="http://www.w3.org/2000/svg">
<path fill-rule="evenodd" clip-rule="evenodd" d="M28.25 23.9375V27.25H3.25V23.9375H28.25ZM14.3343 4.14697L12.7352 7.05104C9.15358 8.29008 6.58333 11.6749 6.58333 15.6562C6.58333 18.2668 7.68842 20.6209 9.459 22.2818L6.17517 22.2822C4.85667 20.4041 4.08333 18.1199 4.08333 15.6562C4.08333 9.72936 8.55867 4.84127 14.3343 4.14697ZM17.1665 4.14705C22.9418 4.84177 27.4167 9.72969 27.4167 15.6562C27.4167 18.1199 26.6433 20.4041 25.3248 22.2822L22.0407 22.282C23.8115 20.6211 24.9167 18.2669 24.9167 15.6562C24.9167 11.6755 22.3472 8.29107 18.7665 7.05162L17.1665 4.14705ZM15.75 0.75C24.0342 0.75 30.75 7.42378 30.75 15.6562C30.75 18.0362 30.1887 20.2858 29.1906 22.2817L27.2992 22.2818C28.4339 20.3328 29.0833 18.0699 29.0833 15.6562C29.0833 8.33844 23.1138 2.40625 15.75 2.40625C8.38617 2.40625 2.41667 8.33844 2.41667 15.6562C2.41667 18.0699 3.06608 20.3328 4.20075 22.2818L2.3094 22.2817C1.31125 20.2858 0.75 18.0362 0.75 15.6562C0.75 7.42378 7.46575 0.75 15.75 0.75ZM15.75 4.0625L20.75 14C19.0833 13.4479 17.9722 13.4479 17.4167 14C16.8611 14.5521 16.3056 16.7604 15.75 20.625C15.1944 16.7604 14.6389 14.5521 14.0833 14C13.5277 13.4479 12.4167 13.4479 10.75 14L15.75 4.0625Z" fill="#F8F8F8"/>
</svg>
